<svg xmlns="http://www.w3.org/2000/svg" viewBox="0 0 100 100" width="100" height="100">
  <defs>
    <linearGradient id="flurtGrad" x1="0%" y1="0%" x2="100%" y2="100%">
      <stop offset="0%" stop-color="#ff0055" />
      <stop offset="50%" stop-color="#e50914" />
      <stop offset="100%" stop-color="#8000ff" />
    </linearGradient>
    <filter id="glow" x="-20%" y="-20%" width="140%" height="140%">
      <feGaussianBlur stdDeviation="3" result="blur" />
      <feComposite in="SourceGraphic" in2="blur" operator="over" />
    </filter>
  </defs>
  <rect width="100" height="100" rx="24" fill="#0c0d14" />
  <path d="M28 26 H72 C74.2 26 76 27.8 76 30 C76 32.2 74.2 34 72 34 H36 V48 H66 C68.2 48 70 49.8 70 52 C70 54.2 68.2 56 66 56 H36 V74 C36 76.2 34.2 78 32 78 C29.8 78 28 76.2 28 74 V26 Z" fill="url(#flurtGrad)" filter="url(#glow)" />
  <circle cx="72" cy="70" r="7" fill="#00f2fe" filter="url(#glow)" />
</svg>
